<svg width="12" height="12" viewBox="0 0 12 12" fill="none" xmlns="http://www.w3.org/2000/svg">
<g id="mingcute:check-fill" clip-path="url(#clip0_269_7698)">
<g id="Group">
<path id="Vector" fill-rule="evenodd" clip-rule="evenodd" d="M10.7711 2.55547C10.9117 2.69612 10.9907 2.88685 10.9907 3.08572C10.9907 3.2846 10.9117 3.47533 10.7711 3.61597L5.14956 9.23747C5.07527 9.31178 4.98707 9.37072 4.89 9.41094C4.79293 9.45115 4.68888 9.47185 4.58381 9.47185C4.47874 9.47185 4.37469 9.45115 4.27762 9.41094C4.18055 9.37072 4.09235 9.31178 4.01806 9.23747L1.22506 6.44497C1.15343 6.37579 1.09629 6.29303 1.05698 6.20153C1.01768 6.11002 0.996987 6.01161 0.996122 5.91202C0.995257 5.81244 1.01423 5.71368 1.05194 5.62151C1.08965 5.52933 1.14534 5.4456 1.21576 5.37518C1.28618 5.30476 1.36992 5.24907 1.46209 5.21136C1.55427 5.17365 1.65303 5.15467 1.75261 5.15553C1.8522 5.1564 1.95061 5.17709 2.04211 5.2164C2.13362 5.2557 2.21637 5.31284 2.28556 5.38447L4.58356 7.68247L9.71006 2.55547C9.77971 2.48578 9.86241 2.43049 9.95344 2.39277C10.0445 2.35505 10.142 2.33563 10.2406 2.33563C10.3391 2.33563 10.4367 2.35505 10.5277 2.39277C10.6187 2.43049 10.7014 2.48578 10.7711 2.55547Z" fill="#2DBE64"/>
</g>
</g>
<defs>
<clipPath id="clip0_269_7698">
<rect width="12" height="12" fill="white"/>
</clipPath>
</defs>
</svg>
