<svg width="24" height="24" viewBox="0 0 24 24" fill="none" xmlns="http://www.w3.org/2000/svg">
<g id="typcn:chevron-left">
<path id="Vector" d="M9.58513 18.414C9.96018 18.7889 10.4688 18.9996 10.9991 18.9996C11.5295 18.9996 12.0381 18.7889 12.4131 18.414L18.8281 12L12.4131 5.586C12.0231 5.195 11.5111 5 10.9991 5C10.4871 5 9.97513 5.195 9.58513 5.586C9.21018 5.96105 8.99955 6.46967 8.99955 7C8.99955 7.53033 9.21018 8.03894 9.58513 8.414L13.1701 12L9.58513 15.586C9.21018 15.9611 8.99955 16.4697 8.99955 17C8.99955 17.5303 9.21018 18.0389 9.58513 18.414Z" fill="white"/>
</g>
</svg>
