<svg width="24" height="24" viewBox="0 0 24 24" fill="none" xmlns="http://www.w3.org/2000/svg">
<g id="typcn:chevron-left">
<path id="Vector" d="M14.4149 5.586C14.0398 5.21106 13.5312 5.00043 13.0009 5.00043C12.4705 5.00043 11.9619 5.21106 11.5869 5.586L5.17188 12L11.5869 18.414C11.9769 18.805 12.4889 19 13.0009 19C13.5129 19 14.0249 18.805 14.4149 18.414C14.7898 18.0389 15.0004 17.5303 15.0004 17C15.0004 16.4697 14.7898 15.9611 14.4149 15.586L10.8299 12L14.4149 8.414C14.7898 8.03894 15.0004 7.53033 15.0004 7C15.0004 6.46967 14.7898 5.96106 14.4149 5.586Z" fill="white"/>
</g>
</svg>
