<svg width="161" height="20" viewBox="0 0 161 20" fill="none" xmlns="http://www.w3.org/2000/svg">
<path d="M9.84375 16.4062V19.6875C7.1276 19.6875 4.80794 18.7259 2.88477 16.8027C0.961589 14.8796 0 12.5599 0 9.84375C0 7.1276 0.961589 4.80794 2.88477 2.88477C4.80794 0.961589 7.1276 0 9.84375 0V3.28125C8.02995 3.28125 6.48047 3.92383 5.19531 5.20898C3.91927 6.48503 3.28125 8.02995 3.28125 9.84375C3.28125 11.6576 3.91927 13.207 5.19531 14.4922C6.48047 15.7682 8.02995 16.4062 9.84375 16.4062Z" fill="#292D32"/>
<path d="M21.8881 19.6875C19.172 19.6875 16.8523 18.7259 14.9291 16.8027C13.006 14.8796 12.0444 12.5599 12.0444 9.84375C12.0444 7.1276 13.006 4.80794 14.9291 2.88477C16.8523 0.961589 19.172 0 21.8881 0C24.6043 0 26.9239 0.961589 28.8471 2.88477C30.7703 4.80794 31.7319 7.1276 31.7319 9.84375C31.7319 12.5599 30.7703 14.8796 28.8471 16.8027C26.9239 18.7259 24.6043 19.6875 21.8881 19.6875ZM21.8881 16.4062C23.7019 16.4062 25.2469 15.7682 26.5229 14.4922C27.808 13.207 28.4506 11.6576 28.4506 9.84375C28.4506 8.02995 27.808 6.48503 26.5229 5.20898C25.2469 3.92383 23.7019 3.28125 21.8881 3.28125C20.0743 3.28125 18.5248 3.92383 17.2397 5.20898C15.9636 6.48503 15.3256 8.02995 15.3256 9.84375C15.3256 11.6576 15.9636 13.207 17.2397 14.4922C18.5248 15.7682 20.0743 16.4062 21.8881 16.4062Z" fill="#292D32"/>
<path d="M43.7762 19.6875C41.0601 19.6875 38.7404 18.7259 36.8173 16.8027C34.8941 14.8796 33.9325 12.5599 33.9325 9.84375C33.9325 7.1276 34.8941 4.80794 36.8173 2.88477C38.7404 0.961589 41.0601 0 43.7762 0C46.4924 0 48.8121 0.961589 50.7352 2.88477C52.6584 4.80794 53.62 7.1276 53.62 9.84375C53.62 12.5599 52.6584 14.8796 50.7352 16.8027C48.8121 18.7259 46.4924 19.6875 43.7762 19.6875ZM43.7762 16.4062C45.59 16.4062 47.135 15.7682 48.411 14.4922C49.6962 13.207 50.3387 11.6576 50.3387 9.84375C50.3387 8.02995 49.6962 6.48503 48.411 5.20898C47.135 3.92383 45.59 3.28125 43.7762 3.28125C41.9624 3.28125 40.413 3.92383 39.1278 5.20898C37.8518 6.48503 37.2137 8.02995 37.2137 9.84375C37.2137 11.6576 37.8518 13.207 39.1278 14.4922C40.413 15.7682 41.9624 16.4062 43.7762 16.4062Z" fill="#292D32"/>
<path d="M59.1019 12.4824V19.6875H55.8206V0H59.1019V7.20508L64.7757 0H68.9456L61.1937 9.84375L68.9456 19.6875H64.7757L59.1019 12.4824Z" fill="#292D32"/>
<path d="M80.99 11.4844H71.1462V8.20312H80.99V11.4844Z" fill="#292D32"/>
<path d="M83.1906 0H86.4719V16.4062H102.878V19.6875H83.1906V0Z" fill="#2DBE64"/>
<path d="M113.282 19.6875C110.566 19.6875 108.246 18.7259 106.323 16.8027C104.4 14.8796 103.438 12.5599 103.438 9.84375C103.438 7.1276 104.4 4.80794 106.323 2.88477C108.246 0.961589 110.566 0 113.282 0C115.998 0 118.318 0.961589 120.241 2.88477C122.164 4.80794 123.126 7.1276 123.126 9.84375C123.126 12.5599 122.164 14.8796 120.241 16.8027C118.318 18.7259 115.998 19.6875 113.282 19.6875ZM113.282 16.4062C115.096 16.4062 116.641 15.7682 117.917 14.4922C119.202 13.207 119.844 11.6576 119.844 9.84375C119.844 8.02995 119.202 6.48503 117.917 5.20898C116.641 3.92383 115.096 3.28125 113.282 3.28125C111.468 3.28125 109.919 3.92383 108.633 5.20898C107.357 6.48503 106.719 8.02995 106.719 9.84375C106.719 11.6576 107.357 13.207 108.633 14.4922C109.919 15.7682 111.468 16.4062 113.282 16.4062Z" fill="#2DBE64"/>
<path d="M135.17 19.6875C132.454 19.6875 130.134 18.7259 128.211 16.8027C126.288 14.8796 125.326 12.5599 125.326 9.84375C125.326 7.1276 126.288 4.80794 128.211 2.88477C130.134 0.961589 132.454 0 135.17 0C137.886 0 140.206 0.961589 142.129 2.88477C144.052 4.80794 145.014 7.1276 145.014 9.84375C145.014 12.5599 144.052 14.8796 142.129 16.8027C140.206 18.7259 137.886 19.6875 135.17 19.6875ZM135.17 16.4062C136.984 16.4062 138.529 15.7682 139.805 14.4922C141.09 13.207 141.732 11.6576 141.732 9.84375C141.732 8.02995 141.09 6.48503 139.805 5.20898C138.529 3.92383 136.984 3.28125 135.17 3.28125C133.356 3.28125 131.807 3.92383 130.522 5.20898C129.246 6.48503 128.607 8.02995 128.607 9.84375C128.607 11.6576 129.246 13.207 130.522 14.4922C131.807 15.7682 133.356 16.4062 135.17 16.4062Z" fill="#2DBE64"/>
<path d="M150.496 12.4824V19.6875H147.214V0H150.496V7.20508L156.169 0H160.339L152.587 9.84375L160.339 19.6875H156.169L150.496 12.4824Z" fill="#2DBE64"/>
</svg>
